<mxfile host="app.diagrams.net" modified="2024-03-25T18:02:29.692Z" agent="Mozilla/5.0 (Windows NT 10.0; Win64; x64) AppleWebKit/537.36 (KHTML, like Gecko) Chrome/122.0.0.0 Safari/537.36" etag="QUuzxXxbsgCQU7ekd74Q" version="24.0.6" type="github">
  <diagram name="Страница — 1" id="MvU0qm0hST8m1UbMpDiH">
    <mxGraphModel dx="1838" dy="1004" grid="1" gridSize="10" guides="1" tooltips="1" connect="1" arrows="1" fold="1" page="1" pageScale="1" pageWidth="827" pageHeight="1169" math="0" shadow="0">
      <root>
        <mxCell id="0" />
        <mxCell id="1" parent="0" />
        <mxCell id="LPzuJbu22fNbqABVCofO-6" style="rounded=0;orthogonalLoop=1;jettySize=auto;html=1;exitX=0;exitY=0.3333333333333333;exitDx=0;exitDy=0;exitPerimeter=0;entryX=1;entryY=0.5;entryDx=0;entryDy=0;endArrow=none;endFill=0;" edge="1" parent="1" source="LPzuJbu22fNbqABVCofO-1" target="LPzuJbu22fNbqABVCofO-2">
          <mxGeometry relative="1" as="geometry">
            <mxPoint x="399" y="640" as="sourcePoint" />
          </mxGeometry>
        </mxCell>
        <mxCell id="LPzuJbu22fNbqABVCofO-7" style="rounded=0;orthogonalLoop=1;jettySize=auto;html=1;exitX=1;exitY=0.3333333333333333;exitDx=0;exitDy=0;exitPerimeter=0;entryX=0;entryY=0.5;entryDx=0;entryDy=0;endArrow=none;endFill=0;" edge="1" parent="1" source="LPzuJbu22fNbqABVCofO-1" target="LPzuJbu22fNbqABVCofO-4">
          <mxGeometry relative="1" as="geometry">
            <mxPoint x="564" y="640" as="sourcePoint" />
          </mxGeometry>
        </mxCell>
        <mxCell id="LPzuJbu22fNbqABVCofO-1" value="&lt;u&gt;a: Студент&lt;/u&gt;" style="shape=umlActor;verticalLabelPosition=bottom;verticalAlign=top;html=1;outlineConnect=0;" vertex="1" parent="1">
          <mxGeometry x="469" y="620" width="30" height="60" as="geometry" />
        </mxCell>
        <mxCell id="LPzuJbu22fNbqABVCofO-10" style="rounded=0;orthogonalLoop=1;jettySize=auto;html=1;entryX=0.5;entryY=0;entryDx=0;entryDy=0;endArrow=none;endFill=0;" edge="1" parent="1" source="LPzuJbu22fNbqABVCofO-2" target="LPzuJbu22fNbqABVCofO-3">
          <mxGeometry relative="1" as="geometry" />
        </mxCell>
        <mxCell id="LPzuJbu22fNbqABVCofO-2" value="b: Семинар курса" style="html=1;whiteSpace=wrap;" vertex="1" parent="1">
          <mxGeometry x="190" y="560" width="110" height="50" as="geometry" />
        </mxCell>
        <mxCell id="LPzuJbu22fNbqABVCofO-3" value="c: Учебный отдел" style="html=1;whiteSpace=wrap;" vertex="1" parent="1">
          <mxGeometry x="190" y="760" width="110" height="50" as="geometry" />
        </mxCell>
        <mxCell id="LPzuJbu22fNbqABVCofO-8" style="rounded=0;orthogonalLoop=1;jettySize=auto;html=1;endArrow=none;endFill=0;" edge="1" parent="1" source="LPzuJbu22fNbqABVCofO-4" target="LPzuJbu22fNbqABVCofO-5">
          <mxGeometry relative="1" as="geometry" />
        </mxCell>
        <mxCell id="LPzuJbu22fNbqABVCofO-4" value="d: Слушатель" style="html=1;whiteSpace=wrap;" vertex="1" parent="1">
          <mxGeometry x="655" y="560" width="110" height="50" as="geometry" />
        </mxCell>
        <mxCell id="LPzuJbu22fNbqABVCofO-9" style="rounded=0;orthogonalLoop=1;jettySize=auto;html=1;entryX=1;entryY=0.5;entryDx=0;entryDy=0;endArrow=none;endFill=0;" edge="1" parent="1" source="LPzuJbu22fNbqABVCofO-5" target="LPzuJbu22fNbqABVCofO-3">
          <mxGeometry relative="1" as="geometry" />
        </mxCell>
        <mxCell id="LPzuJbu22fNbqABVCofO-5" value=": История пройденных семинаров" style="html=1;whiteSpace=wrap;" vertex="1" parent="1">
          <mxGeometry x="655" y="760" width="110" height="50" as="geometry" />
        </mxCell>
        <mxCell id="LPzuJbu22fNbqABVCofO-11" style="edgeStyle=orthogonalEdgeStyle;rounded=0;orthogonalLoop=1;jettySize=auto;html=1;entryX=0.75;entryY=0;entryDx=0;entryDy=0;endArrow=none;endFill=0;curved=1;" edge="1" parent="1" source="LPzuJbu22fNbqABVCofO-4" target="LPzuJbu22fNbqABVCofO-4">
          <mxGeometry relative="1" as="geometry">
            <Array as="points">
              <mxPoint x="685" y="480" />
              <mxPoint x="738" y="480" />
            </Array>
          </mxGeometry>
        </mxCell>
        <mxCell id="LPzuJbu22fNbqABVCofO-12" value="" style="endArrow=classic;html=1;rounded=0;" edge="1" parent="1">
          <mxGeometry width="50" height="50" relative="1" as="geometry">
            <mxPoint x="260" y="640" as="sourcePoint" />
            <mxPoint x="260" y="720" as="targetPoint" />
          </mxGeometry>
        </mxCell>
        <mxCell id="LPzuJbu22fNbqABVCofO-13" value="" style="endArrow=classic;html=1;rounded=0;" edge="1" parent="1">
          <mxGeometry width="50" height="50" relative="1" as="geometry">
            <mxPoint x="700" y="720" as="sourcePoint" />
            <mxPoint x="700" y="640" as="targetPoint" />
          </mxGeometry>
        </mxCell>
        <mxCell id="LPzuJbu22fNbqABVCofO-14" value="" style="endArrow=classic;html=1;rounded=0;" edge="1" parent="1">
          <mxGeometry width="50" height="50" relative="1" as="geometry">
            <mxPoint x="413.5" y="770" as="sourcePoint" />
            <mxPoint x="553.5" y="770" as="targetPoint" />
          </mxGeometry>
        </mxCell>
        <mxCell id="LPzuJbu22fNbqABVCofO-15" value="" style="endArrow=classic;html=1;rounded=0;" edge="1" parent="1">
          <mxGeometry width="50" height="50" relative="1" as="geometry">
            <mxPoint x="400" y="640" as="sourcePoint" />
            <mxPoint x="330" y="610" as="targetPoint" />
          </mxGeometry>
        </mxCell>
        <mxCell id="LPzuJbu22fNbqABVCofO-16" value="" style="endArrow=classic;html=1;rounded=0;dashed=1;" edge="1" parent="1">
          <mxGeometry width="50" height="50" relative="1" as="geometry">
            <mxPoint x="625" y="610" as="sourcePoint" />
            <mxPoint x="560" y="640" as="targetPoint" />
          </mxGeometry>
        </mxCell>
        <mxCell id="LPzuJbu22fNbqABVCofO-18" value="1: записьНа&lt;div&gt;Семинар()&lt;/div&gt;" style="text;html=1;align=center;verticalAlign=middle;whiteSpace=wrap;rounded=0;" vertex="1" parent="1">
          <mxGeometry x="350" y="560" width="70" height="30" as="geometry" />
        </mxCell>
        <mxCell id="LPzuJbu22fNbqABVCofO-19" value="6: сообщениеРезультата&lt;br&gt;&lt;div&gt;Записи(статус)&lt;/div&gt;" style="text;html=1;align=center;verticalAlign=middle;whiteSpace=wrap;rounded=0;" vertex="1" parent="1">
          <mxGeometry x="499" y="560" width="141" height="30" as="geometry" />
        </mxCell>
        <mxCell id="LPzuJbu22fNbqABVCofO-20" value="2: проверка&lt;div&gt;ПодготовленностиСтудента()&lt;/div&gt;" style="text;html=1;align=center;verticalAlign=middle;whiteSpace=wrap;rounded=0;" vertex="1" parent="1">
          <mxGeometry x="120" y="650" width="70" height="30" as="geometry" />
        </mxCell>
        <mxCell id="LPzuJbu22fNbqABVCofO-21" value="3: запросИсторииПройденных&lt;div&gt;Семинаров(студент)&lt;/div&gt;" style="text;html=1;align=center;verticalAlign=middle;whiteSpace=wrap;rounded=0;" vertex="1" parent="1">
          <mxGeometry x="360" y="790" width="230" height="30" as="geometry" />
        </mxCell>
        <mxCell id="LPzuJbu22fNbqABVCofO-22" value="4: передачаИстории()" style="text;html=1;align=center;verticalAlign=middle;whiteSpace=wrap;rounded=0;" vertex="1" parent="1">
          <mxGeometry x="720" y="670" width="130" height="30" as="geometry" />
        </mxCell>
        <mxCell id="LPzuJbu22fNbqABVCofO-23" value="5: определениеСтатуса&lt;div&gt;Подготовленности()&lt;/div&gt;" style="text;html=1;align=center;verticalAlign=middle;whiteSpace=wrap;rounded=0;" vertex="1" parent="1">
          <mxGeometry x="632.5" y="440" width="155" height="30" as="geometry" />
        </mxCell>
      </root>
    </mxGraphModel>
  </diagram>
</mxfile>
